<?xml version="1.0" encoding="utf-8"?>
<!-- Generator: Adobe Illustrator 25.2.0, SVG Export Plug-In . SVG Version: 6.00 Build 0)  -->
<svg version="1.1" xmlns="http://www.w3.org/2000/svg" xmlns:xlink="http://www.w3.org/1999/xlink" x="0px" y="0px"
	 viewBox="0 0 300 300" style="enable-background:new 0 0 300 300;" xml:space="preserve">
<style type="text/css">
	.st0{display:none;}
	.st1{display:inline;fill:#FFFFFF;}
	.st2{display:inline;fill:#F7C2C3;}
	.st3{display:inline;fill:#F1B9BE;}
	.st4{display:inline;fill:#FDF58F;}
	.st5{display:inline;fill:#F7F8F8;}
	.st6{fill:#EE86A0;}
	.st7{fill:#F5EF90;}
</style>
<g id="レイヤー_1" class="st0">
	<path class="st1" d="M150.19,130.37"/>
	<path class="st2" d="M150.19,0.87"/>
	
		<ellipse transform="matrix(0.7071 -0.7071 0.7071 0.7071 -122.5525 125.9338)" class="st3" cx="90.74" cy="210.9" rx="61.11" ry="20.73"/>
	
		<ellipse transform="matrix(0.3746 -0.9272 0.9272 0.3746 -138.469 253.5174)" class="st2" cx="118.69" cy="229.4" rx="61.11" ry="20.73"/>
	
		<ellipse transform="matrix(0.9998 -0.0175 0.0175 0.9998 -4.0872 2.6826)" class="st3" cx="151.65" cy="235.51" rx="20.73" ry="61.11"/>
	
		<ellipse transform="matrix(0.9135 -0.4067 0.4067 0.9135 -76.8996 94.7286)" class="st2" cx="184.38" cy="228.26" rx="20.73" ry="61.11"/>
	
		<ellipse transform="matrix(0.342 -0.9397 0.9397 0.342 -18.5387 333.9391)" class="st3" cx="229.19" cy="180.21" rx="20.73" ry="61.11"/>
	
		<ellipse transform="matrix(0.8988 -0.4384 0.4384 0.8988 -27.3897 110.5602)" class="st3" cx="225.75" cy="114.6" rx="61.11" ry="20.73"/>
	
		<ellipse transform="matrix(0.309 -0.9511 0.9511 0.309 53.7303 216.9471)" class="st3" cx="176.17" cy="71.5" rx="61.11" ry="20.73"/>
	
		<ellipse transform="matrix(0.9962 -0.0872 0.0872 0.9962 -5.357 12.7086)" class="st2" cx="142.86" cy="67.7" rx="20.73" ry="61.11"/>
	
		<ellipse transform="matrix(0.8829 -0.4695 0.4695 0.8829 -23.2942 61.0179)" class="st2" cx="110.72" cy="77.22" rx="20.73" ry="61.11"/>
	
		<ellipse transform="matrix(0.6293 -0.7771 0.7771 0.6293 -45.1318 102.4705)" class="st3" cx="84.85" cy="98.55" rx="20.73" ry="61.11"/>
	
		<ellipse transform="matrix(0.2756 -0.9613 0.9613 0.2756 -73.0603 159.6062)" class="st2" cx="69.37" cy="128.28" rx="20.73" ry="61.11"/>
	
		<ellipse transform="matrix(0.9925 -0.1219 0.1219 0.9925 -19.2087 9.3391)" class="st3" cx="66.74" cy="161.7" rx="61.11" ry="20.73"/>
	<ellipse transform="matrix(0.866 -0.5 0.5 0.866 -86.3778 64.612)" class="st2" cx="77.38" cy="193.49" rx="61.11" ry="20.73"/>
	
		<ellipse transform="matrix(0.7071 -0.7071 0.7071 0.7071 -87.729 210.0051)" class="st2" cx="209.63" cy="210.9" rx="20.73" ry="61.11"/>
	<ellipse class="st2" cx="234.26" cy="151.45" rx="61.11" ry="20.73"/>
	
		<ellipse transform="matrix(0.7071 -0.7071 0.7071 0.7071 -3.6577 175.1816)" class="st2" cx="209.63" cy="92.01" rx="61.11" ry="20.73"/>
	<circle class="st4" cx="150.19" cy="151.45" r="32.25"/>
</g>
<g id="レイヤー_2" class="st0">
	<path class="st5" d="M188.37,6.8c-26.48-7.1-53.92,5.32-69.03,28.79c-24.82-12.78-54.79-9.81-74.17,9.58s-22.36,49.36-9.58,74.17
		C12.12,134.45-0.3,161.89,6.8,188.37c7.1,26.48,31.56,44.04,59.45,45.38c1.34,27.88,18.9,52.35,45.38,59.45
		c26.48,7.1,53.92-5.32,69.03-28.79c24.82,12.78,54.79,9.81,74.17-9.58s22.36-49.35,9.58-74.17c23.47-15.11,35.88-42.54,28.79-69.03
		c-7.1-26.48-31.56-44.04-59.45-45.38C232.41,38.36,214.85,13.9,188.37,6.8z M153.82,164.26c-2.26-0.92-4.59-1.73-7-2.38
		s-4.84-1.11-7.26-1.44c-0.33-2.42-0.8-4.84-1.44-7.26c-0.65-2.41-1.45-4.74-2.38-7c1.93-1.5,3.8-3.11,5.56-4.88
		s3.38-3.63,4.88-5.56c2.26,0.92,4.59,1.73,7,2.38c2.41,0.65,4.84,1.11,7.26,1.44c0.33,2.42,0.8,4.84,1.44,7.26s1.45,4.74,2.38,7
		c-1.93,1.5-3.8,3.11-5.56,4.88S155.32,162.33,153.82,164.26z"/>
	<circle class="st4" cx="150" cy="150" r="33.36"/>
</g>
<g id="レイヤー_3">
	<g>
		<path class="st6" d="M179.93,98.16c73.16-126.72-133.02-126.72-59.86,0C46.91-28.56-56.18,150,90.14,150
			c-146.32,0-43.23,178.56,29.93,51.84c-73.16,126.72,133.02,126.72,59.86,0C253.09,328.56,356.18,150,209.86,150
			C356.18,150,253.09-28.56,179.93,98.16z"/>
	</g>
	<circle class="st7" cx="150" cy="150" r="33.52"/>
</g>
</svg>
